<svg width="16" height="16" viewBox="0 0 16 16" fill="none" xmlns="http://www.w3.org/2000/svg">
<path d="M8 12V8.5M8 8.5C8.3453 8.5 8.68038 8.45629 9 8.37402M8 8.5C7.6547 8.5 7.31962 8.45629 7 8.37402M9.5 13.3596C9.01413 13.4518 8.5127 13.5 8 13.5C7.48731 13.5 6.98588 13.4518 6.5 13.3596M9 14.948C8.67136 14.9824 8.33774 15 8 15C7.66226 15 7.32864 14.9824 7 14.948M9.5 12V11.8722C9.5 11.2169 9.93885 10.6567 10.5056 10.3278C11.997 9.4625 13 7.84838 13 6C13 3.23858 10.7614 1 8 1C5.23858 1 3 3.23858 3 6C3 7.84838 4.00297 9.4625 5.49437 10.3278C6.06115 10.6567 6.5 11.2169 6.5 11.8722V12" stroke="#F88125" stroke-width="1.5" stroke-linecap="round" stroke-linejoin="round"/>
</svg>
