<svg width="24" height="24" viewBox="0 0 24 24" fill="none" xmlns="http://www.w3.org/2000/svg">
<path d="M18.0977 11.75C18.0977 12.0052 18.0156 12.2148 17.8516 12.3789C17.7057 12.543 17.5052 12.625 17.25 12.625H8.85547L11.7539 15.4961C11.918 15.6784 12 15.888 12 16.125C12 16.362 11.918 16.5716 11.7539 16.7539C11.5716 16.918 11.362 17 11.125 17C10.888 17 10.6784 16.918 10.4961 16.7539L6.12109 12.3789C5.95703 12.1966 5.875 11.987 5.875 11.75C5.875 11.513 5.95703 11.3034 6.12109 11.1211L10.4961 6.74609C10.6784 6.58203 10.888 6.5 11.125 6.5C11.362 6.5 11.5716 6.58203 11.7539 6.74609C11.918 6.92839 12 7.13802 12 7.375C12 7.61198 11.918 7.82161 11.7539 8.00391L8.85547 10.875H17.25C17.5052 10.875 17.7057 10.957 17.8516 11.1211C18.0156 11.2852 18.0977 11.4948 18.0977 11.75Z" fill="#333333"/>
</svg>