<svg
                width="21"
                height="20"
                viewBox="0 0 21 20"
                fill="none"
                xmlns="http://www.w3.org/2000/svg"
              >
                <path
                  d="M2.375 5.625C2.375 12.5286 7.97144 18.125 14.875 18.125H16.75C17.7855 18.125 18.625 17.2855 18.625 16.25V15.107C18.625 14.6768 18.3322 14.3018 17.9149 14.1975L14.2289 13.276C13.863 13.1845 13.4778 13.3212 13.2515 13.623L12.443 14.701C12.2083 15.0139 11.8025 15.1522 11.4353 15.0177C8.67949 14.0082 6.4918 11.8205 5.4823 9.06472C5.34778 8.69749 5.48613 8.29165 5.799 8.057L6.87702 7.24849C7.17878 7.02217 7.31551 6.63704 7.22403 6.27111L6.30253 2.58512C6.19819 2.16778 5.82321 1.875 5.39302 1.875H4.25C3.21447 1.875 2.375 2.71447 2.375 3.75V5.625Z"
                  stroke="black"
                  stroke-width="1.5"
                  stroke-linecap="round"
                  stroke-linejoin="round"
                />
              </svg>