<svg width="36" height="36" viewBox="0 0 36 36" fill="none" xmlns="http://www.w3.org/2000/svg">
<path fill-rule="evenodd" clip-rule="evenodd" d="M21.7501 11.7318V11.9208C22.5457 11.9936 23.3347 12.0894 24.1165 12.2075C24.4059 12.2512 24.6944 12.298 24.9818 12.3477C25.3219 12.4067 25.5498 12.7301 25.4909 13.0703C25.432 13.4104 25.1085 13.6383 24.7684 13.5794C24.7104 13.5694 24.6524 13.5594 24.5943 13.5496L23.7564 24.4417C23.6562 25.7442 22.5701 26.75 21.2638 26.75H14.7364C13.4301 26.75 12.344 25.7442 12.2438 24.4417L11.4059 13.5496C11.3478 13.5594 11.2898 13.5694 11.2318 13.5794C10.8917 13.6383 10.5682 13.4104 10.5093 13.0703C10.4504 12.7301 10.6783 12.4067 11.0184 12.3477C11.3058 12.298 11.5943 12.2512 11.8837 12.2075C12.6655 12.0894 13.4545 11.9936 14.2501 11.9208V11.7318C14.2501 10.4281 15.2605 9.31515 16.5963 9.27242C17.0624 9.25751 17.5304 9.25 18.0001 9.25C18.4698 9.25 18.9378 9.25751 19.4039 9.27242C20.7397 9.31515 21.7501 10.4281 21.7501 11.7318ZM16.6363 10.5218C17.0891 10.5073 17.5437 10.5 18.0001 10.5C18.4565 10.5 18.9111 10.5073 19.3639 10.5218C19.9928 10.5419 20.5001 11.0699 20.5001 11.7318V11.8257C19.6731 11.7755 18.8396 11.75 18.0001 11.75C17.1607 11.75 16.3271 11.7755 15.5001 11.8257V11.7318C15.5001 11.0699 16.0074 10.5419 16.6363 10.5218ZM16.3406 15.476C16.3273 15.1311 16.037 14.8622 15.692 14.8755C15.3471 14.8887 15.0783 15.1791 15.0915 15.524L15.38 23.024C15.3933 23.3689 15.6836 23.6378 16.0285 23.6245C16.3735 23.6113 16.6423 23.3209 16.6291 22.976L16.3406 15.476ZM20.9079 15.524C20.9212 15.1791 20.6523 14.8887 20.3074 14.8755C19.9625 14.8622 19.6721 15.1311 19.6588 15.476L19.3704 22.976C19.3571 23.3209 19.626 23.6113 19.9709 23.6245C20.3158 23.6378 20.6062 23.3689 20.6194 23.024L20.9079 15.524Z" fill="#0F172A"/>
</svg>
