<svg width="20" height="20" viewBox="0 0 20 20" fill="none" xmlns="http://www.w3.org/2000/svg">
  <path d="M3.31657 6.8525C2.53695 7.77265 1.95642 8.84434 1.61157 10C2.68824 13.615 6.03657 16.25 9.99991 16.25C10.8274 16.25 11.6274 16.135 12.3857 15.9208M5.18991 5.19C6.61709 4.24817 8.28997 3.74735 9.99991 3.75C13.9632 3.75 17.3107 6.385 18.3874 9.99833C17.7973 11.9727 16.5307 13.6763 14.8099 14.81M5.18991 5.19L2.49991 2.5M5.18991 5.19L8.23157 8.23167M14.8099 14.81L17.4999 17.5M14.8099 14.81L11.7682 11.7683C12.0004 11.5362 12.1846 11.2605 12.3102 10.9572C12.4359 10.6539 12.5005 10.3287 12.5005 10.0004C12.5005 9.67208 12.4359 9.34697 12.3102 9.04363C12.1846 8.74029 12.0004 8.46467 11.7682 8.2325C11.5361 8.00033 11.2605 7.81617 10.9571 7.69052C10.6538 7.56487 10.3287 7.5002 10.0003 7.5002C9.67199 7.5002 9.34687 7.56487 9.04353 7.69052C8.74019 7.81617 8.46457 8.00033 8.23241 8.2325M11.7674 11.7675L8.23324 8.23333" stroke="black" stroke-opacity="0.5" stroke-width="1.5" stroke-linecap="round" stroke-linejoin="round"/>
  </svg>