<svg
  width="647"
  height="202"
  viewBox="0 0 647 202"
  fill="none"
  xmlns="http://www.w3.org/2000/svg"
>
  <path
    d="M0.96 45L22.592 0.967999H37.12L58.752 45H44.608L41.28 37.96H17.728L14.4 45H0.96ZM22.08 28.424H36.928L32.96 19.464C32.7893 19.08 32.5547 18.5253 32.256 17.8C31.9573 17.032 31.6373 16.2427 31.296 15.432C30.9547 14.5787 30.656 13.8107 30.4 13.128C30.144 12.4027 29.9307 11.8693 29.76 11.528H29.312C29.0133 12.296 28.6507 13.192 28.224 14.216C27.7973 15.24 27.392 16.2213 27.008 17.16C26.6667 18.0987 26.3467 18.8667 26.048 19.464L22.08 28.424ZM108.053 45.768C104.469 45.768 101.12 45.5547 98.005 45.128C94.8903 44.7013 92.1597 43.9547 89.813 42.888C87.4663 41.8213 85.6317 40.328 84.309 38.408C82.9863 36.488 82.325 34.056 82.325 31.112C82.325 31.0267 82.325 30.92 82.325 30.792C82.325 30.664 82.3463 30.536 82.389 30.408H95.189C95.1463 30.5787 95.1037 30.7493 95.061 30.92C95.061 31.0907 95.061 31.2827 95.061 31.496C95.061 32.8187 95.5517 33.864 96.533 34.632C97.557 35.3573 98.965 35.8693 100.757 36.168C102.549 36.4667 104.661 36.616 107.093 36.616C108.074 36.616 109.077 36.5947 110.101 36.552C111.168 36.4667 112.192 36.36 113.173 36.232C114.154 36.0613 115.029 35.8267 115.797 35.528C116.608 35.2293 117.226 34.8667 117.653 34.44C118.122 33.9707 118.357 33.3947 118.357 32.712C118.357 31.816 117.866 31.112 116.885 30.6C115.946 30.0453 114.624 29.6187 112.917 29.32C111.253 28.9787 109.376 28.68 107.285 28.424C105.237 28.168 103.104 27.8693 100.885 27.528C98.6663 27.144 96.5117 26.6533 94.421 26.056C92.3303 25.416 90.453 24.584 88.789 23.56C87.125 22.536 85.8023 21.2133 84.821 19.592C83.8397 17.9707 83.349 16.008 83.349 13.704C83.349 11.3573 83.925 9.352 85.077 7.688C86.2717 5.98133 87.9357 4.57333 90.069 3.464C92.2023 2.35467 94.7197 1.544 97.621 1.032C100.522 0.477331 103.68 0.199997 107.093 0.199997C110.592 0.199997 113.749 0.477331 116.565 1.032C119.424 1.58666 121.856 2.41867 123.861 3.528C125.909 4.59467 127.466 5.96 128.533 7.624C129.642 9.24533 130.197 11.1653 130.197 13.384V14.28H117.589V13.768C117.589 12.872 117.205 12.0827 116.437 11.4C115.669 10.6747 114.538 10.12 113.045 9.736C111.594 9.30933 109.824 9.096 107.733 9.096C105.216 9.096 103.146 9.26666 101.525 9.608C99.9037 9.90667 98.709 10.3333 97.941 10.888C97.173 11.4 96.789 11.9973 96.789 12.68C96.789 13.5333 97.2797 14.216 98.261 14.728C99.2423 15.1973 100.565 15.5813 102.229 15.88C103.893 16.1787 105.749 16.456 107.797 16.712C109.888 16.968 112.042 17.2667 114.261 17.608C116.522 17.9493 118.677 18.4187 120.725 19.016C122.816 19.6133 124.693 20.424 126.357 21.448C128.021 22.4293 129.344 23.7093 130.325 25.288C131.306 26.824 131.797 28.7227 131.797 30.984C131.797 34.5253 130.773 37.384 128.725 39.56C126.677 41.736 123.861 43.3147 120.277 44.296C116.736 45.2773 112.661 45.768 108.053 45.768ZM140.065 45V0.967999H153.057V17.352H179.489V0.967999H192.481V45H179.489V27.848H153.057V45H140.065ZM230.322 45.768C224.434 45.768 219.314 44.872 214.962 43.08C210.652 41.2453 207.324 38.6427 204.978 35.272C202.631 31.8587 201.458 27.7627 201.458 22.984C201.458 18.2053 202.631 14.1307 204.978 10.76C207.324 7.34667 210.652 4.744 214.962 2.952C219.314 1.11733 224.434 0.199997 230.322 0.199997C236.295 0.199997 241.436 1.11733 245.746 2.952C250.055 4.744 253.383 7.34667 255.73 10.76C258.076 14.1307 259.25 18.2053 259.25 22.984C259.25 27.7627 258.076 31.8587 255.73 35.272C253.383 38.6427 250.055 41.2453 245.746 43.08C241.436 44.872 236.295 45.768 230.322 45.768ZM230.322 36.104C232.626 36.104 234.716 35.8267 236.594 35.272C238.514 34.7173 240.156 33.9067 241.522 32.84C242.887 31.7733 243.932 30.472 244.658 28.936C245.426 27.3573 245.81 25.608 245.81 23.688V22.152C245.81 20.2747 245.426 18.568 244.658 17.032C243.932 15.496 242.887 14.1947 241.522 13.128C240.156 12.0613 238.514 11.2507 236.594 10.696C234.716 10.1413 232.626 9.864 230.322 9.864C228.018 9.864 225.927 10.1413 224.05 10.696C222.172 11.2507 220.53 12.0613 219.122 13.128C217.756 14.1947 216.711 15.496 215.986 17.032C215.26 18.568 214.898 20.2747 214.898 22.152V23.688C214.898 25.608 215.26 27.3573 215.986 28.936C216.711 30.472 217.756 31.7733 219.122 32.84C220.53 33.9067 222.172 34.7173 224.05 35.272C225.927 35.8267 228.018 36.104 230.322 36.104ZM268.19 45V0.967999H304.798C307.998 0.967999 310.643 1.62933 312.734 2.952C314.825 4.27466 316.403 6.024 317.47 8.2C318.537 10.3333 319.07 12.68 319.07 15.24C319.07 18.0133 318.409 20.552 317.086 22.856C315.763 25.1173 313.779 26.9093 311.134 28.232L320.094 45H305.374L298.078 30.344H281.182V45H268.19ZM281.182 20.744H300.51C302.089 20.744 303.347 20.2747 304.286 19.336C305.225 18.3973 305.694 17.1387 305.694 15.56C305.694 14.536 305.481 13.6613 305.054 12.936C304.627 12.168 304.03 11.592 303.262 11.208C302.494 10.824 301.577 10.632 300.51 10.632H281.182V20.744ZM342.358 45V11.464H323.286V0.967999H374.486V11.464H355.414V45H342.358ZM5.44 123V78.968H18.432V123H5.44ZM29.315 123V78.968H40.963L63.747 99.512C64.131 99.8533 64.6217 100.323 65.219 100.92C65.859 101.517 66.499 102.136 67.139 102.776C67.8217 103.416 68.3977 104.013 68.867 104.568H69.443C69.443 103.8 69.4217 102.84 69.379 101.688C69.379 100.536 69.379 99.512 69.379 98.616V78.968H81.667V123H70.211L47.939 102.904C46.915 102.008 45.8483 101.005 44.739 99.896C43.6297 98.7867 42.7337 97.912 42.051 97.272H41.539C41.539 97.8267 41.539 98.7227 41.539 99.96C41.5817 101.197 41.603 102.52 41.603 103.928V123H29.315ZM107.733 123V89.464H88.661V78.968H139.861V89.464H120.789V123H107.733ZM146.815 123V78.968H183.423C186.623 78.968 189.268 79.6293 191.359 80.952C193.45 82.2747 195.028 84.024 196.095 86.2C197.162 88.3333 197.695 90.68 197.695 93.24C197.695 96.0133 197.034 98.552 195.711 100.856C194.388 103.117 192.404 104.909 189.759 106.232L198.719 123H183.999L176.703 108.344H159.807V123H146.815ZM159.807 98.744H179.135C180.714 98.744 181.972 98.2747 182.911 97.336C183.85 96.3973 184.319 95.1387 184.319 93.56C184.319 92.536 184.106 91.6613 183.679 90.936C183.252 90.168 182.655 89.592 181.887 89.208C181.119 88.824 180.202 88.632 179.135 88.632H159.807V98.744ZM233.384 123.768C227.496 123.768 222.376 122.872 218.024 121.08C213.715 119.245 210.387 116.643 208.04 113.272C205.693 109.859 204.52 105.763 204.52 100.984C204.52 96.2053 205.693 92.1307 208.04 88.76C210.387 85.3467 213.715 82.744 218.024 80.952C222.376 79.1173 227.496 78.2 233.384 78.2C239.357 78.2 244.499 79.1173 248.808 80.952C253.117 82.744 256.445 85.3467 258.792 88.76C261.139 92.1307 262.312 96.2053 262.312 100.984C262.312 105.763 261.139 109.859 258.792 113.272C256.445 116.643 253.117 119.245 248.808 121.08C244.499 122.872 239.357 123.768 233.384 123.768ZM233.384 114.104C235.688 114.104 237.779 113.827 239.656 113.272C241.576 112.717 243.219 111.907 244.584 110.84C245.949 109.773 246.995 108.472 247.72 106.936C248.488 105.357 248.872 103.608 248.872 101.688V100.152C248.872 98.2747 248.488 96.568 247.72 95.032C246.995 93.496 245.949 92.1947 244.584 91.128C243.219 90.0613 241.576 89.2507 239.656 88.696C237.779 88.1413 235.688 87.864 233.384 87.864C231.08 87.864 228.989 88.1413 227.112 88.696C225.235 89.2507 223.592 90.0613 222.184 91.128C220.819 92.1947 219.773 93.496 219.048 95.032C218.323 96.568 217.96 98.2747 217.96 100.152V101.688C217.96 103.608 218.323 105.357 219.048 106.936C219.773 108.472 220.819 109.773 222.184 110.84C223.592 111.907 225.235 112.717 227.112 113.272C228.989 113.827 231.08 114.104 233.384 114.104ZM271.253 123V78.968H295.829C301.247 78.968 305.919 79.8213 309.845 81.528C313.77 83.2347 316.778 85.7307 318.869 89.016C320.959 92.3013 322.005 96.2907 322.005 100.984C322.005 105.72 320.959 109.731 318.869 113.016C316.778 116.259 313.77 118.733 309.845 120.44C305.919 122.147 301.247 123 295.829 123H271.253ZM284.245 113.336H295.061C297.109 113.336 298.943 113.08 300.565 112.568C302.229 112.013 303.658 111.245 304.853 110.264C306.047 109.283 306.965 108.067 307.605 106.616C308.287 105.165 308.629 103.523 308.629 101.688V100.216C308.629 98.3813 308.287 96.76 307.605 95.352C306.965 93.9013 306.047 92.6853 304.853 91.704C303.658 90.7227 302.229 89.976 300.565 89.464C298.943 88.9093 297.109 88.632 295.061 88.632H284.245V113.336ZM356.476 123.768C350.673 123.768 345.873 122.936 342.076 121.272C338.279 119.565 335.441 117.112 333.564 113.912C331.687 110.669 330.748 106.787 330.748 102.264V78.968H343.74V101.688C343.74 105.613 344.849 108.664 347.068 110.84C349.287 113.016 352.423 114.104 356.476 114.104C360.529 114.104 363.665 113.016 365.884 110.84C368.103 108.664 369.212 105.613 369.212 101.688V78.968H382.268V102.264C382.268 106.787 381.329 110.669 379.452 113.912C377.575 117.112 374.716 119.565 370.876 121.272C367.079 122.936 362.279 123.768 356.476 123.768ZM418.606 123.768C412.462 123.768 407.342 122.915 403.246 121.208C399.15 119.459 396.078 116.899 394.03 113.528C391.982 110.157 390.958 105.976 390.958 100.984C390.958 93.688 393.304 88.0773 397.998 84.152C402.734 80.184 409.624 78.2 418.67 78.2C423.704 78.2 428.142 78.968 431.982 80.504C435.822 81.9973 438.808 84.1307 440.942 86.904C443.118 89.6347 444.206 92.8773 444.206 96.632H431.534C431.534 94.7973 430.979 93.24 429.87 91.96C428.803 90.6373 427.288 89.6347 425.326 88.952C423.363 88.2267 421.08 87.864 418.478 87.864C415.406 87.864 412.824 88.3973 410.734 89.464C408.643 90.488 407.043 91.9173 405.934 93.752C404.867 95.5867 404.333 97.72 404.333 100.152V101.752C404.333 104.184 404.867 106.339 405.934 108.216C407.043 110.051 408.622 111.501 410.67 112.568C412.76 113.592 415.299 114.104 418.286 114.104C421.102 114.104 423.512 113.784 425.518 113.144C427.566 112.461 429.123 111.48 430.19 110.2C431.299 108.92 431.854 107.384 431.854 105.592H444.27C444.27 109.219 443.224 112.397 441.134 115.128C439.043 117.859 436.078 119.992 432.238 121.528C428.44 123.021 423.896 123.768 418.606 123.768ZM466.483 123V89.464H447.411V78.968H498.611V89.464H479.539V123H466.483ZM505.565 123V78.968H518.557V123H505.565ZM556.384 123.768C550.496 123.768 545.376 122.872 541.024 121.08C536.715 119.245 533.387 116.643 531.04 113.272C528.693 109.859 527.52 105.763 527.52 100.984C527.52 96.2053 528.693 92.1307 531.04 88.76C533.387 85.3467 536.715 82.744 541.024 80.952C545.376 79.1173 550.496 78.2 556.384 78.2C562.357 78.2 567.499 79.1173 571.808 80.952C576.117 82.744 579.445 85.3467 581.792 88.76C584.139 92.1307 585.312 96.2053 585.312 100.984C585.312 105.763 584.139 109.859 581.792 113.272C579.445 116.643 576.117 119.245 571.808 121.08C567.499 122.872 562.357 123.768 556.384 123.768ZM556.384 114.104C558.688 114.104 560.779 113.827 562.656 113.272C564.576 112.717 566.219 111.907 567.584 110.84C568.949 109.773 569.995 108.472 570.72 106.936C571.488 105.357 571.872 103.608 571.872 101.688V100.152C571.872 98.2747 571.488 96.568 570.72 95.032C569.995 93.496 568.949 92.1947 567.584 91.128C566.219 90.0613 564.576 89.2507 562.656 88.696C560.779 88.1413 558.688 87.864 556.384 87.864C554.08 87.864 551.989 88.1413 550.112 88.696C548.235 89.2507 546.592 90.0613 545.184 91.128C543.819 92.1947 542.773 93.496 542.048 95.032C541.323 96.568 540.96 98.2747 540.96 100.152V101.688C540.96 103.608 541.323 105.357 542.048 106.936C542.773 108.472 543.819 109.773 545.184 110.84C546.592 111.907 548.235 112.717 550.112 113.272C551.989 113.827 554.08 114.104 556.384 114.104ZM594.253 123V78.968H605.901L628.685 99.512C629.069 99.8533 629.559 100.323 630.157 100.92C630.797 101.517 631.437 102.136 632.077 102.776C632.759 103.416 633.335 104.013 633.805 104.568H634.381C634.381 103.8 634.359 102.84 634.317 101.688C634.317 100.536 634.317 99.512 634.317 98.616V78.968H646.605V123H635.149L612.877 102.904C611.853 102.008 610.786 101.005 609.677 99.896C608.567 98.7867 607.671 97.912 606.989 97.272H606.477C606.477 97.8267 606.477 98.7227 606.477 99.96C606.519 101.197 606.541 102.52 606.541 103.928V123H594.253ZM5.44 201V156.968H18.432V201H5.44ZM52.803 201.768C49.219 201.768 45.8697 201.555 42.755 201.128C39.6403 200.701 36.9097 199.955 34.563 198.888C32.2163 197.821 30.3817 196.328 29.059 194.408C27.7363 192.488 27.075 190.056 27.075 187.112C27.075 187.027 27.075 186.92 27.075 186.792C27.075 186.664 27.0963 186.536 27.139 186.408H39.939C39.8963 186.579 39.8537 186.749 39.811 186.92C39.811 187.091 39.811 187.283 39.811 187.496C39.811 188.819 40.3017 189.864 41.283 190.632C42.307 191.357 43.715 191.869 45.507 192.168C47.299 192.467 49.411 192.616 51.843 192.616C52.8243 192.616 53.827 192.595 54.851 192.552C55.9177 192.467 56.9417 192.36 57.923 192.232C58.9043 192.061 59.779 191.827 60.547 191.528C61.3577 191.229 61.9763 190.867 62.403 190.44C62.8723 189.971 63.107 189.395 63.107 188.712C63.107 187.816 62.6163 187.112 61.635 186.6C60.6963 186.045 59.3737 185.619 57.667 185.32C56.003 184.979 54.1257 184.68 52.035 184.424C49.987 184.168 47.8537 183.869 45.635 183.528C43.4163 183.144 41.2617 182.653 39.171 182.056C37.0803 181.416 35.203 180.584 33.539 179.56C31.875 178.536 30.5523 177.213 29.571 175.592C28.5897 173.971 28.099 172.008 28.099 169.704C28.099 167.357 28.675 165.352 29.827 163.688C31.0217 161.981 32.6857 160.573 34.819 159.464C36.9523 158.355 39.4697 157.544 42.371 157.032C45.2723 156.477 48.4297 156.2 51.843 156.2C55.3417 156.2 58.499 156.477 61.315 157.032C64.1737 157.587 66.6057 158.419 68.611 159.528C70.659 160.595 72.2163 161.96 73.283 163.624C74.3923 165.245 74.947 167.165 74.947 169.384V170.28H62.339V169.768C62.339 168.872 61.955 168.083 61.187 167.4C60.419 166.675 59.2883 166.12 57.795 165.736C56.3443 165.309 54.5737 165.096 52.483 165.096C49.9657 165.096 47.8963 165.267 46.275 165.608C44.6537 165.907 43.459 166.333 42.691 166.888C41.923 167.4 41.539 167.997 41.539 168.68C41.539 169.533 42.0297 170.216 43.011 170.728C43.9923 171.197 45.315 171.581 46.979 171.88C48.643 172.179 50.499 172.456 52.547 172.712C54.6377 172.968 56.7923 173.267 59.011 173.608C61.2723 173.949 63.427 174.419 65.475 175.016C67.5657 175.613 69.443 176.424 71.107 177.448C72.771 178.429 74.0937 179.709 75.075 181.288C76.0563 182.824 76.547 184.723 76.547 186.984C76.547 190.525 75.523 193.384 73.475 195.56C71.427 197.736 68.611 199.315 65.027 200.296C61.4857 201.277 57.411 201.768 52.803 201.768ZM104.253 201V156.968H140.413C142.802 156.968 144.957 157.437 146.877 158.376C148.797 159.272 150.311 160.531 151.421 162.152C152.573 163.773 153.149 165.672 153.149 167.848C153.149 169.768 152.807 171.411 152.125 172.776C151.442 174.141 150.503 175.251 149.309 176.104C148.157 176.957 146.877 177.597 145.469 178.024V178.28C147.133 178.621 148.626 179.24 149.949 180.136C151.271 180.989 152.317 182.163 153.085 183.656C153.853 185.149 154.237 186.963 154.237 189.096C154.237 191.613 153.618 193.768 152.381 195.56C151.186 197.309 149.565 198.653 147.517 199.592C145.469 200.531 143.165 201 140.605 201H104.253ZM117.245 191.72H136.253C137.618 191.72 138.727 191.357 139.581 190.632C140.434 189.864 140.861 188.712 140.861 187.176C140.861 186.365 140.669 185.64 140.285 185C139.943 184.36 139.41 183.869 138.685 183.528C137.959 183.144 137.085 182.952 136.061 182.952H117.245V191.72ZM117.245 174.376H135.165C136.146 174.376 136.978 174.205 137.661 173.864C138.343 173.48 138.877 172.968 139.261 172.328C139.645 171.688 139.837 170.92 139.837 170.024C139.837 168.787 139.41 167.805 138.557 167.08C137.703 166.312 136.637 165.928 135.357 165.928H117.245V174.376ZM162.753 201V156.968H208.577V166.632H175.809V174.056H204.481V183.4H175.809V191.336H209.089V201H162.753ZM241.491 201.768C237.907 201.768 234.557 201.555 231.443 201.128C228.328 200.701 225.597 199.955 223.251 198.888C220.904 197.821 219.069 196.328 217.747 194.408C216.424 192.488 215.763 190.056 215.763 187.112C215.763 187.027 215.763 186.92 215.763 186.792C215.763 186.664 215.784 186.536 215.827 186.408H228.627C228.584 186.579 228.541 186.749 228.499 186.92C228.499 187.091 228.499 187.283 228.499 187.496C228.499 188.819 228.989 189.864 229.971 190.632C230.995 191.357 232.403 191.869 234.195 192.168C235.987 192.467 238.099 192.616 240.531 192.616C241.512 192.616 242.515 192.595 243.539 192.552C244.605 192.467 245.629 192.36 246.611 192.232C247.592 192.061 248.467 191.827 249.235 191.528C250.045 191.229 250.664 190.867 251.091 190.44C251.56 189.971 251.795 189.395 251.795 188.712C251.795 187.816 251.304 187.112 250.323 186.6C249.384 186.045 248.061 185.619 246.354 185.32C244.691 184.979 242.813 184.68 240.723 184.424C238.675 184.168 236.541 183.869 234.323 183.528C232.104 183.144 229.949 182.653 227.859 182.056C225.768 181.416 223.891 180.584 222.227 179.56C220.563 178.536 219.24 177.213 218.259 175.592C217.277 173.971 216.786 172.008 216.786 169.704C216.786 167.357 217.363 165.352 218.515 163.688C219.709 161.981 221.373 160.573 223.507 159.464C225.64 158.355 228.157 157.544 231.059 157.032C233.96 156.477 237.117 156.2 240.531 156.2C244.029 156.2 247.187 156.477 250.003 157.032C252.861 157.587 255.293 158.419 257.299 159.528C259.347 160.595 260.904 161.96 261.971 163.624C263.08 165.245 263.635 167.165 263.635 169.384V170.28H251.027V169.768C251.027 168.872 250.643 168.083 249.875 167.4C249.106 166.675 247.976 166.12 246.483 165.736C245.032 165.309 243.261 165.096 241.171 165.096C238.653 165.096 236.584 165.267 234.963 165.608C233.341 165.907 232.147 166.333 231.378 166.888C230.611 167.4 230.227 167.997 230.227 168.68C230.227 169.533 230.717 170.216 231.699 170.728C232.68 171.197 234.003 171.581 235.667 171.88C237.331 172.179 239.187 172.456 241.235 172.712C243.325 172.968 245.48 173.267 247.699 173.608C249.96 173.949 252.115 174.419 254.163 175.016C256.253 175.613 258.131 176.424 259.795 177.448C261.459 178.429 262.781 179.709 263.763 181.288C264.744 182.824 265.235 184.723 265.235 186.984C265.235 190.525 264.211 193.384 262.163 195.56C260.115 197.736 257.299 199.315 253.715 200.296C250.173 201.277 246.099 201.768 241.491 201.768ZM288.671 201V167.464H269.599V156.968H320.799V167.464H301.727V201H288.671Z"
    fill="black"
  />
</svg>