<svg width="20" height="20" viewBox="0 0 20 20" fill="none" xmlns="http://www.w3.org/2000/svg">
  <path d="M6.27991 5.21985C6.13773 5.08737 5.94969 5.01524 5.75539 5.01867C5.56109 5.0221 5.3757 5.10081 5.23829 5.23822C5.10087 5.37564 5.02216 5.56102 5.01873 5.75532C5.01531 5.94963 5.08743 6.13767 5.21991 6.27985L8.93991 9.99985L5.21991 13.7198C5.14622 13.7885 5.08712 13.8713 5.04613 13.9633C5.00514 14.0553 4.98309 14.1546 4.98132 14.2553C4.97954 14.356 4.99807 14.4561 5.03579 14.5494C5.07351 14.6428 5.12965 14.7277 5.20087 14.7989C5.27209 14.8701 5.35692 14.9262 5.45031 14.964C5.5437 15.0017 5.64373 15.0202 5.74443 15.0184C5.84513 15.0167 5.94445 14.9946 6.03645 14.9536C6.12845 14.9126 6.21125 14.8535 6.27991 14.7798L9.99991 11.0598L13.7199 14.7798C13.7886 14.8535 13.8714 14.9126 13.9634 14.9536C14.0554 14.9946 14.1547 15.0167 14.2554 15.0184C14.3561 15.0202 14.4561 15.0017 14.5495 14.964C14.6429 14.9262 14.7277 14.8701 14.7989 14.7989C14.8702 14.7277 14.9263 14.6428 14.964 14.5494C15.0018 14.4561 15.0203 14.356 15.0185 14.2553C15.0167 14.1546 14.9947 14.0553 14.9537 13.9633C14.9127 13.8713 14.8536 13.7885 14.7799 13.7198L11.0599 9.99985L14.7799 6.27985C14.9124 6.13767 14.9845 5.94963 14.9811 5.75532C14.9777 5.56102 14.8989 5.37564 14.7615 5.23822C14.6241 5.10081 14.4387 5.0221 14.2444 5.01867C14.0501 5.01524 13.8621 5.08737 13.7199 5.21985L9.99991 8.93985L6.27991 5.21985Z" fill="black"/>
  </svg>
